<?xml version="1.0" encoding="UTF-8"?>
<!DOCTYPE svg PUBLIC "-//W3C//DTD SVG 1.1//EN" "http://www.w3.org/Graphics/SVG/1.1/DTD/svg11.dtd">
<!-- Creator: CorelDRAW X6 -->
<svg xmlns="http://www.w3.org/2000/svg" xml:space="preserve" width="297mm" height="210mm" version="1.1" style="shape-rendering:geometricPrecision; text-rendering:geometricPrecision; image-rendering:optimizeQuality; fill-rule:evenodd; clip-rule:evenodd"
viewBox="0 0 29700 21000"
 xmlns:xlink="http://www.w3.org/1999/xlink">
 <defs>
  <style type="text/css">
   <![CDATA[
    .fil0 {fill:#040507}
    .fil2 {fill:#239EDA}
    .fil1 {fill:#FADD00}
    .fil3 {fill:#FDFDFD}
   ]]>
  </style>
 </defs>
 <g id="Camada_x0020_1">
  <metadata id="CorelCorpID_0Corel-Layer"/>
  <g id="_448448784">
   <path class="fil0" d="M14624 16051c2084,-301 2568,2955 426,3273 -2109,313 -2741,-2938 -426,-3273zm3404 -6486c2167,-235 3874,1377 4077,3257 237,2203 -1338,3849 -3271,4101 -393,51 -1335,3 -1628,-189 -121,-79 -269,-422 -379,-563 -824,-1050 -1415,-748 -1641,-1124 -205,-340 -385,-926 -437,-1390 -250,-2201 1389,-3887 3280,-4092zm-5752 8251c-418,-12 -1471,-638 -1811,-864 -1601,-1062 -2845,-2802 -3289,-4855 -659,-3050 557,-5904 2805,-7746 2094,-1717 5588,-2281 8374,-817 2054,1079 4163,3385 4228,6595l-602 -626c-659,-601 -1395,-1053 -2322,-1275 -3458,-826 -6561,1926 -6394,5222 58,1149 273,1243 439,1929 -205,165 -366,228 -577,412 -574,501 -869,1194 -853,2025zm12244 -6609c308,-2952 -1084,-5685 -2443,-7223 -207,-234 -434,-405 -628,-623 -151,-170 -174,-171 -331,-296 -1668,-1339 -3251,-2097 -5567,-2302 -1487,-132 -2975,144 -4221,610 -589,220 -1156,509 -1640,812 -255,160 -487,314 -715,485 -651,488 -1360,1172 -1845,1806 -368,480 -663,914 -960,1492 -1954,3794 -1205,8108 1357,11004 207,235 432,404 628,623 150,168 175,172 331,296 123,98 191,166 313,260 465,358 925,674 1491,960 3521,1784 7855,1360 10690,-1099 544,-472 1054,-958 1494,-1531 1216,-1583 1825,-3158 2046,-5273z"/>
   <path class="fil1" d="M12276 17815c-17,-831 278,-1524 853,-2025 210,-184 372,-247 577,-412 -166,-686 -381,-781 -439,-1929 -167,-3296 2936,-6047 6394,-5222 927,221 1663,674 2322,1275l602 626c-65,-3210 -2174,-5516 -4228,-6595 -2786,-1463 -6280,-900 -8374,817 -2247,1843 -3464,4696 -2805,7746 444,2053 1687,3793 3289,4855 340,225 1393,851 1811,864z"/>
   <path class="fil2" d="M18029 9564c-1892,205 -3530,1892 -3280,4092 53,463 233,1049 437,1390 227,377 818,74 1641,1124 111,141 259,484 379,563 293,192 1235,241 1628,189 1933,-252 3508,-1898 3271,-4101 -202,-1880 -1910,-3492 -4077,-3257z"/>
   <path class="fil3" d="M14624 16051c-2316,335 -1683,3586 426,3273 2142,-318 1658,-3574 -426,-3273z"/>
  </g>
 </g>
</svg>
