<?xml version="1.0" encoding="UTF-8"?>
<!DOCTYPE svg PUBLIC "-//W3C//DTD SVG 1.1//EN" "http://www.w3.org/Graphics/SVG/1.1/DTD/svg11.dtd">
<!-- Creator: CorelDRAW X6 -->
<svg xmlns="http://www.w3.org/2000/svg" xml:space="preserve" width="288mm" height="124mm" version="1.1" style="shape-rendering:geometricPrecision; text-rendering:geometricPrecision; image-rendering:optimizeQuality; fill-rule:evenodd; clip-rule:evenodd"
viewBox="0 0 28800 12400"
 xmlns:xlink="http://www.w3.org/1999/xlink">
 <defs>
  <style type="text/css">
   <![CDATA[
    .fil0 {fill:#050606}
   ]]>
  </style>
 </defs>
 <g id="Camada_x0020_1">
  <metadata id="CorelCorpID_0Corel-Layer"/>
  <g id="_427750888">
   <path class="fil0" d="M22329 3166l612 -2 -47 3420 -565 -19 0 -3399zm-630 -888c-576,191 -421,884 -420,1579 0,659 2,1319 0,1978 -2,627 -138,1441 371,1615 306,105 1716,106 2001,-25 465,-215 349,-968 350,-1589 2,-659 4,-1319 4,-1978 0,-668 131,-1359 -367,-1571 -361,-154 -1613,-116 -1939,-8z"/>
   <path class="fil0" d="M13484 3166l611 -8 -46 3423 -553 -7 -13 -3407zm-1063 4336c2950,50 2697,182 2697,-1840 0,-745 -3,-1491 0,-2236 6,-1415 9,-1198 -2688,-1191l-10 5267z"/>
   <path class="fil0" d="M19204 3151l611 14 14 2047 -611 19 -13 -2080zm-1052 4346l1023 19 31 -1407c1917,1 1640,140 1639,-2510 0,-773 156,-1327 -670,-1364 -469,-21 -1595,-40 -2018,34l-4 5229z"/>
   <path class="fil0" d="M27953 4495c-205,-14 -379,-6 -575,-12 -108,-3 -136,7 -249,-18 -206,-45 -92,22 -169,-99 -98,-185 -104,-673 -65,-932 51,-336 258,-275 656,-269 218,4 436,2 656,1l-82 -401 -58 -538c-662,-22 -1947,-226 -2128,439 -122,450 -56,2092 59,2497 399,202 699,128 1249,150l-15 1208 -1230 -6c50,348 106,756 230,990 2241,47 2027,131 2035,-2014 2,-462 110,-934 -314,-996z"/>
   <polygon class="fil0" points="16641,3222 17779,3219 17623,2242 15562,2256 15583,7517 17566,7514 17736,6543 16651,6523 16642,5380 17510,5377 17497,4472 16652,4463 "/>
   <polygon class="fil0" points="23056,10403 23450,11944 24280,11928 24268,7911 23461,7926 23408,9309 23027,7912 22283,7903 22298,11951 23022,11947 "/>
   <path class="fil0" d="M20720 8628l361 -5 42 2601 -423 8c-78,-465 -99,-2191 21,-2605zm957 -680c-2101,-298 -1827,291 -1826,1155 1,644 -185,2573 283,2783 203,91 1254,94 1468,20 523,-180 336,-1836 334,-2717 -1,-667 107,-869 -259,-1241z"/>
   <path class="fil0" d="M13180 9188c0,-68 1,-290 12,-346 39,-195 45,-123 109,-220 313,1 291,40 334,218 3,12 1,311 0,347l-24 2035 -405 11 -27 -2044zm1264 947c0,-1558 226,-2217 -709,-2227 -416,-4 -938,-23 -1346,27l-4 3981c601,84 1527,110 1990,-114l69 -1668z"/>
   <path class="fil0" d="M15785 9540c80,279 224,1006 92,1258l-272 1 180 -1258zm-251 1916l498 -3 95 496 807 -11 -733 -4025 -855 -1 -705 4043 791 -22 102 -477z"/>
   <polygon class="fil0" points="24434,7514 25483,7482 25470,2239 24428,2227 "/>
   <path class="fil0" d="M18771 9639c-945,-214 -1034,341 -957,-962l988 -14 -128 -726c-436,-56 -1040,-86 -1421,44 -381,353 -279,1463 -195,2064 159,329 677,222 974,233l3 914 -957 6 175 728c538,55 1184,105 1507,-189 161,-547 136,-1621 12,-2097z"/>
   <polygon class="fil0" points="27497,8672 28370,8659 28241,7910 26679,7913 26684,11950 28220,11923 28317,11197 27505,11158 27509,10331 28169,10312 28159,9618 27506,9587 "/>
   <polygon class="fil0" points="26438,7909 24713,7910 24623,8658 25404,8683 24519,11948 26201,11951 26316,11198 25594,11190 "/>
   <path class="fil0" d="M6492 1571c2738,0 4958,2239 4958,5001 0,2762 -2220,5001 -4958,5001 -2738,0 -4958,-2239 -4958,-5001 0,-2762 2220,-5001 4958,-5001zm-433 940c2057,0 3724,1658 3724,3703 0,2045 -1667,3703 -3724,3703 -2057,0 -3724,-1658 -3724,-3703 0,-2045 1667,-3703 3724,-3703z"/>
   <path class="fil0" d="M5714 2522c1698,0 3075,1413 3075,3155 0,1743 -1377,3155 -3075,3155 -1698,0 -3075,-1413 -3075,-3155 0,-1743 1377,-3155 3075,-3155zm582 960l0 0c90,0 164,74 164,164l0 2359c99,68 164,181 164,309 0,207 -171,376 -381,376 -210,0 -381,-168 -381,-376 0,-88 31,-170 83,-234l-1061 -1445c-44,-59 -31,-144 29,-188l0 0c60,-44 144,-31 188,29l1032 1406 0 -2235c0,-90 74,-164 164,-164z"/>
   <path class="fil0" d="M1200 4845c-1861,-1397 -14,-4241 1996,-2855 -460,389 -852,761 -1167,1143l609 365 -204 343 -631 -412c-309,439 -515,898 -603,1415zm8289 -2931l-330 -221c110,68 220,142 330,221zm-331 -221l-322 471 294 248 358 -497c352,254 706,564 1077,922 1175,-2140 -1842,-3690 -3042,-1696 586,39 1114,232 1634,554zm-7130 1441c-80,97 -155,195 -225,294l225 -294z"/>
   <rect class="fil0" transform="matrix(2.14955 -1.8923 1.8923 2.14955 8479.22 10604.3)" width="300" height="811" rx="403" ry="403"/>
   <rect class="fil0" transform="matrix(2.32828 1.66747 -1.66747 2.32828 4207.27 9752.47)" width="300" height="811" rx="403" ry="403"/>
  </g>
 </g>
</svg>
